<?xml version="1.0" standalone="no"?>
<!DOCTYPE svg PUBLIC "-//W3C//DTD SVG 20010904//EN"
 "http://www.w3.org/TR/2001/REC-SVG-20010904/DTD/svg10.dtd">
<svg version="1.0" xmlns="http://www.w3.org/2000/svg"
 width="600.000000pt" height="600.000000pt" viewBox="0 0 600.000000 600.000000"
 preserveAspectRatio="xMidYMid meet">
<metadata>
Created by potrace 1.11, written by Peter Selinger 2001-2013
</metadata>
<g transform="translate(0.000000,600.000000) scale(0.100000,-0.100000)"
fill="#000000" stroke="none">
<path d="M5652 5968 c2 -15 10 -23 23 -23 30 0 27 39 -3 43 -20 3 -23 0 -20
-20z"/>
<path d="M4700 5926 c0 -19 7 -27 26 -32 14 -4 30 -2 37 5 17 17 -4 45 -37 49
-22 3 -26 0 -26 -22z"/>
<path d="M5556 5885 c-20 -20 -20 -39 -1 -55 22 -18 67 13 63 43 -4 27 -39 34
-62 12z"/>
<path d="M3500 5851 c-17 -32 -12 -60 14 -77 22 -13 29 -14 53 -2 31 15 43 59
22 84 -18 21 -76 18 -89 -5z"/>
<path d="M5358 5813 c-9 -10 -23 -33 -32 -51 -21 -41 -39 -48 -68 -28 -51 36
-98 3 -98 -69 0 -30 -5 -47 -16 -53 -9 -5 -16 -12 -15 -15 0 -4 -2 -13 -5 -20
-7 -19 13 -66 31 -73 8 -3 34 5 57 19 80 46 113 63 159 80 27 10 50 27 56 40
51 111 54 136 21 167 -27 25 -70 26 -90 3z"/>
<path d="M4413 5805 c-13 -9 -23 -27 -23 -40 0 -40 -18 -75 -45 -85 -69 -26
-73 -25 -97 26 -35 74 -108 90 -108 23 0 -35 55 -99 85 -99 9 0 44 -22 77 -50
33 -27 66 -50 73 -50 8 0 26 18 42 40 15 22 35 40 44 40 16 0 59 40 59 54 0 4
-6 14 -14 22 -11 11 -12 22 -5 47 17 59 -40 106 -88 72z"/>
<path d="M566 5778 c-21 -29 -20 -41 2 -61 18 -17 76 -23 106 -11 22 9 20 50
-4 74 -28 28 -84 27 -104 -2z"/>
<path d="M1597 5783 c-4 -3 -7 -19 -7 -34 0 -27 48 -79 73 -79 7 0 22 -3 35
-6 20 -6 22 -3 22 29 0 46 -46 97 -87 97 -16 0 -33 -3 -36 -7z"/>
<path d="M772 5717 c-27 -32 21 -83 53 -57 19 16 19 35 -1 54 -19 19 -38 20
-52 3z"/>
<path d="M3168 5719 c-11 -6 -18 -22 -18 -39 0 -33 -5 -35 -46 -20 -30 12 -54
-1 -54 -30 0 -18 39 -40 72 -40 16 0 19 5 16 25 -5 25 11 30 40 11 18 -11 66
24 70 51 6 40 -41 65 -80 42z"/>
<path d="M957 5683 c-15 -17 -27 -43 -30 -63 -2 -20 -7 -41 -11 -48 -5 -8 3
-27 19 -48 33 -44 66 -44 72 0 2 16 15 43 29 59 33 40 40 72 20 102 -23 34
-64 33 -99 -2z"/>
<path d="M1865 5645 c-14 -13 -25 -29 -25 -35 0 -22 21 -50 49 -65 26 -13 30
-13 44 3 18 21 37 57 37 71 0 18 -39 51 -60 51 -12 0 -32 -11 -45 -25z"/>
<path d="M45 5605 c-32 -31 -31 -50 1 -80 34 -31 88 -34 104 -6 18 34 12 68
-16 90 -35 27 -59 26 -89 -4z"/>
<path d="M2580 5546 c0 -32 18 -43 38 -23 13 13 13 19 2 31 -19 24 -40 19 -40
-8z"/>
<path d="M4443 5538 c-36 -40 -36 -67 1 -102 18 -18 31 -37 28 -44 -7 -21 89
-15 118 8 30 23 25 29 -29 34 -23 2 -44 6 -47 9 -3 2 2 21 10 42 12 27 13 42
6 56 -15 26 -61 25 -87 -3z"/>
<path d="M4810 5535 c-11 -13 -8 -15 18 -15 34 0 50 15 26 24 -23 9 -30 8 -44
-9z"/>
<path d="M2889 5439 c-14 -14 -19 -30 -17 -52 l3 -32 64 3 c68 2 85 13 75 47
-15 52 -87 72 -125 34z"/>
<path d="M3247 5453 c-13 -13 -7 -51 12 -74 19 -23 20 -23 39 -5 23 20 19 43
-12 68 -23 19 -30 21 -39 11z"/>
<path d="M422 5425 c-18 -8 -40 -28 -50 -45 -9 -16 -20 -30 -24 -30 -5 0 -8
-7 -8 -16 0 -13 -3 -14 -14 -4 -11 8 -20 9 -33 1 -10 -6 -13 -11 -7 -11 7 0
14 -8 16 -18 3 -10 22 -26 43 -36 l37 -18 64 63 c35 35 64 71 64 81 0 15 -35
49 -50 48 -3 -1 -20 -7 -38 -15z"/>
<path d="M1960 5403 c0 -46 19 -93 38 -93 7 0 11 -4 8 -9 -4 -5 3 -7 14 -4 25
7 49 54 40 79 -11 27 -40 51 -72 59 -27 7 -28 6 -28 -32z"/>
<path d="M1170 5420 c0 -5 5 -10 10 -10 6 0 10 5 10 10 0 6 -4 10 -10 10 -5 0
-10 -4 -10 -10z"/>
<path d="M1650 5408 c-24 -10 -23 -11 19 -19 51 -10 65 -4 37 17 -23 16 -23
16 -56 2z"/>
<path d="M4250 5360 c-21 -21 -26 -40 -11 -40 5 0 26 7 47 16 36 15 37 17 19
30 -25 18 -31 18 -55 -6z"/>
<path d="M5825 5340 c-18 -20 -10 -50 14 -50 26 0 55 25 48 42 -8 24 -44 28
-62 8z"/>
<path d="M5455 5330 c-11 -4 -31 -18 -44 -31 -20 -19 -23 -28 -17 -68 3 -25 8
-55 11 -66 4 -13 -1 -29 -14 -44 -19 -21 -24 -23 -61 -13 -22 5 -40 7 -40 3 0
-4 -16 -5 -35 -3 -29 3 -40 -1 -58 -22 -18 -21 -31 -26 -69 -26 -25 0 -59 -3
-75 -6 -29 -6 -30 -7 -25 -57 4 -44 3 -49 -12 -44 -10 4 -16 1 -16 -8 0 -8 -8
-15 -17 -15 -10 0 -27 -7 -37 -15 -11 -8 -28 -15 -39 -15 -10 0 -26 -9 -35
-20 -11 -13 -33 -22 -62 -24 -25 -3 -47 -6 -50 -7 -3 -1 -9 -1 -14 0 -5 1 -6
-5 -2 -14 3 -9 13 -41 22 -73 9 -31 18 -59 20 -61 2 -2 23 9 47 26 66 48 154
89 242 115 69 20 102 23 236 23 l156 -1 24 41 c13 22 24 50 26 62 1 13 23 55
50 95 79 118 77 109 43 138 -19 16 -30 35 -30 51 0 26 -27 57 -67 78 -25 13
-31 13 -58 1z"/>
<path d="M456 5298 c3 -4 1 -8 -5 -8 -6 0 -16 -19 -23 -41 -11 -37 -10 -43 7
-56 11 -7 26 -12 34 -11 23 5 61 67 61 99 0 27 -2 29 -40 27 -21 -1 -37 -5
-34 -10z"/>
<path d="M832 5253 c-11 -10 -23 -28 -27 -41 -7 -23 -6 -23 71 -20 87 3 99 14
60 53 -30 30 -75 33 -104 8z"/>
<path d="M3422 5204 c41 -42 57 -41 36 3 -9 20 -22 29 -43 31 l-30 3 37 -37z"/>
<path d="M3791 5174 c-12 -15 -22 -32 -23 -38 -3 -25 -5 -32 -12 -53 -8 -25
-31 -31 -39 -10 -4 10 -6 10 -6 0 -1 -15 -43 -17 -89 -4 -21 7 -32 6 -32 -1 0
-6 -6 -6 -15 2 -11 9 -15 9 -15 1 0 -7 -4 -10 -9 -7 -5 4 -8 -4 -6 -16 14 -91
16 -120 6 -113 -6 3 -11 -1 -11 -10 0 -9 -4 -13 -10 -10 -5 3 -10 1 -10 -4 0
-13 -22 -10 -32 4 -5 6 -11 6 -16 -2 -5 -9 -12 -2 -21 22 -13 38 -54 75 -81
75 -35 0 -51 -34 -53 -113 -2 -58 -5 -73 -14 -65 -7 6 -50 11 -95 12 l-83 1 0
-45 c0 -25 -6 -55 -13 -67 -9 -17 -10 -23 -1 -23 6 0 9 -6 6 -13 -4 -10 22
-17 97 -29 111 -18 238 -63 333 -119 158 -93 331 -334 338 -471 3 -45 1 -48
-21 -48 -16 0 -24 -6 -25 -17 0 -11 -3 -13 -6 -5 -8 19 -21 14 -25 -10 -2 -18
-12 -25 -43 -32 -56 -12 -84 -26 -90 -47 -4 -11 -29 -25 -65 -37 -33 -10 -57
-16 -55 -12 2 3 -5 12 -17 19 -16 10 -18 10 -12 0 5 -9 2 -10 -10 -6 -10 4
-21 7 -24 7 -4 0 0 5 8 11 13 9 12 10 -2 5 -10 -3 -53 4 -95 15 -110 30 -261
29 -368 -1 -44 -12 -87 -23 -95 -23 -8 -1 -19 -8 -23 -14 -4 -7 -13 -13 -18
-13 -6 0 -7 6 -3 13 5 8 3 8 -9 -2 -15 -12 -20 -10 -44 16 -20 20 -39 30 -68
32 -50 4 -60 11 -14 11 73 0 129 64 129 148 0 48 -4 58 -35 89 -31 31 -40 35
-72 30 -39 -7 -86 -45 -109 -89 -19 -36 -18 -108 2 -136 12 -17 12 -22 2 -20
-7 2 -12 -3 -10 -10 1 -8 -2 -11 -8 -7 -6 3 -7 11 -4 17 4 6 -1 6 -14 -1 -41
-22 -162 5 -162 36 0 16 -71 18 -87 2 -7 -7 -12 -1 -17 21 -3 17 -10 29 -14
26 -12 -7 -34 42 -26 57 3 7 -2 3 -11 -8 -17 -20 -17 -20 -10 5 32 112 118
249 229 361 70 72 73 77 48 77 -15 0 -37 -6 -49 -14 -13 -8 -23 -11 -23 -6 0
10 -47 9 -72 -1 -41 -16 -49 -16 -68 3 -17 17 -48 24 -97 23 -7 -1 -11 3 -8 7
7 11 -22 21 -40 14 -8 -4 -15 -1 -15 5 0 7 -6 11 -12 10 -29 -5 -107 14 -112
27 -3 8 -12 14 -20 14 -7 0 -17 11 -20 25 -4 16 -11 22 -21 19 -11 -5 -13 -2
-8 12 5 13 3 15 -7 9 -10 -6 -12 -4 -6 11 4 10 10 43 13 71 7 63 -13 80 -51
44 l-23 -22 13 52 c8 29 12 55 9 57 -3 3 -5 1 -5 -4 0 -6 -20 -9 -45 -9 -25 1
-48 -2 -51 -7 -9 -14 -74 -9 -80 7 -4 8 -10 13 -14 10 -4 -2 -5 15 -2 40 4 41
1 48 -31 80 -64 64 -125 38 -148 -62 -4 -18 -3 -33 2 -33 4 0 6 -6 3 -14 -3
-8 0 -17 7 -22 8 -5 10 -3 4 6 -5 9 -4 11 4 6 26 -16 -4 -24 -70 -19 l-71 6
16 -38 c9 -20 14 -41 11 -45 -3 -5 -1 -10 5 -12 20 -6 -6 -63 -36 -77 -16 -8
-31 -18 -32 -23 -2 -4 -7 -6 -12 -3 -4 2 -20 -8 -36 -22 -16 -15 -32 -27 -35
-26 -4 1 -14 -16 -24 -37 -10 -22 -22 -37 -26 -34 -5 3 -15 2 -21 -2 -23 -15
-59 -17 -104 -8 -18 3 -41 1 -52 -5 -15 -8 -21 -8 -24 0 -3 8 -10 6 -21 -5
-16 -16 -22 -14 -18 7 1 5 -3 6 -9 2 -6 -4 -9 -14 -8 -23 2 -11 -3 -16 -12
-14 -8 2 -37 5 -65 6 -27 1 -57 5 -65 8 -38 16 -71 17 -101 4 -37 -14 -88 -12
-104 6 -7 8 -6 9 3 4 6 -4 12 -2 12 3 0 6 -7 11 -16 11 -11 0 -15 6 -11 20 3
11 1 18 -4 14 -8 -4 -13 8 -11 27 1 3 -4 6 -11 7 -7 1 -28 5 -47 8 -29 5 -39
1 -58 -19 l-24 -25 64 -43 c88 -59 195 -171 246 -256 23 -39 42 -77 42 -83 0
-8 10 -6 28 6 195 130 411 195 601 180 301 -25 579 -184 737 -421 68 -102 121
-234 96 -243 -7 -2 -12 -8 -12 -13 0 -11 -15 -31 -42 -57 -10 -9 -18 -26 -18
-37 0 -18 -19 -60 -20 -43 0 4 -16 1 -36 -6 -47 -16 -104 -1 -104 28 0 76 -69
169 -134 182 -44 8 -60 0 -90 -40 -16 -20 -20 -40 -18 -84 2 -87 6 -111 16
-104 5 3 7 -2 3 -10 -7 -19 37 -63 53 -53 6 3 10 3 9 -2 -5 -27 2 -32 27 -23
37 15 43 11 11 -6 -18 -10 -33 -12 -44 -5 -16 9 -84 -14 -91 -31 -6 -13 -22
-9 -52 12 -23 16 -34 18 -54 10 -15 -5 -45 -7 -69 -4 -28 4 -55 1 -81 -10 -46
-19 -80 -22 -56 -5 13 9 12 10 -2 5 -10 -3 -25 -9 -33 -12 -8 -3 -15 -1 -15 6
0 6 -4 9 -8 6 -4 -3 -24 -1 -43 3 -21 5 -50 3 -75 -4 -45 -13 -64 -3 -64 36 0
22 0 22 -22 3 l-22 -19 17 27 c36 57 14 163 -43 212 -71 59 -182 8 -211 -98
-5 -19 -16 -37 -25 -40 -8 -3 -12 -2 -9 4 3 6 2 10 -4 10 -5 0 -13 -5 -16 -10
-4 -6 -11 -8 -16 -4 -5 3 -16 0 -24 -6 -8 -7 -15 -9 -15 -6 0 4 -9 2 -20 -4
-14 -7 -20 -7 -20 0 0 5 -18 10 -39 10 -22 0 -43 5 -46 11 -4 6 -13 8 -20 5
-9 -3 -18 7 -25 29 -8 23 -16 32 -26 28 -8 -3 -14 1 -14 10 0 10 -14 18 -39
22 -47 8 -65 26 -56 55 5 14 1 25 -9 33 -21 16 -8 63 50 179 49 97 54 113 24
75 -20 -25 -23 -26 -154 -26 -127 0 -138 -2 -188 -27 -54 -29 -167 -46 -153
-24 3 5 -1 10 -9 10 -9 0 -16 -4 -16 -9 0 -4 -11 -7 -25 -6 -14 2 -27 -1 -31
-6 -3 -5 -17 -9 -32 -8 l-27 1 25 8 c24 8 24 8 3 10 -13 1 -29 3 -35 4 -7 1
-13 14 -13 29 1 26 0 27 -12 11 -25 -34 -16 -61 23 -74 19 -7 38 -10 41 -7 3
3 10 1 17 -4 6 -5 54 -37 106 -71 163 -105 362 -331 408 -462 7 -22 17 -47 22
-57 11 -20 3 -52 -12 -43 -5 3 -7 13 -4 21 3 8 1 11 -4 8 -15 -9 -12 -41 5
-55 19 -16 19 -30 0 -30 -9 0 -15 -9 -15 -22 0 -19 -2 -20 -11 -8 -7 10 -12
11 -15 3 -3 -6 -14 -21 -24 -33 -11 -13 -17 -27 -14 -31 3 -5 -5 -9 -16 -9
-16 0 -20 -5 -16 -15 7 -18 -15 -20 -32 -3 -9 9 -12 9 -12 0 0 -7 5 -12 11
-12 5 0 8 -4 5 -9 -4 -5 -3 -16 0 -25 5 -14 19 -15 88 -10 97 8 309 -10 426
-36 268 -58 508 -190 718 -395 63 -60 118 -109 124 -107 5 1 7 -2 3 -8 -3 -5
14 -38 38 -72 57 -81 137 -240 137 -273 0 -17 4 -24 11 -19 8 4 8 1 1 -12 -5
-11 -6 -28 -1 -39 4 -11 8 -27 8 -35 0 -9 -4 -7 -8 5 -6 13 -8 3 -6 -29 2 -31
-2 -54 -10 -62 -7 -8 -15 -19 -18 -26 -4 -10 -7 -11 -18 -1 -19 18 -26 16 -32
-10 -7 -24 -82 -107 -97 -107 -6 0 -10 -7 -10 -16 0 -11 -6 -15 -20 -11 -11 3
-18 2 -15 -3 2 -4 -10 -10 -28 -14 -17 -3 -45 -12 -62 -20 -16 -8 -43 -20 -58
-27 -16 -7 -26 -18 -23 -26 3 -7 -1 -13 -9 -13 -8 0 -15 -5 -15 -10 0 -6 -10
-8 -24 -4 -21 5 -26 1 -36 -30 -12 -37 -13 -38 -96 -40 -17 -1 -39 -7 -48 -15
-10 -9 -20 -11 -24 -5 -4 5 -14 11 -22 13 -8 1 -39 9 -68 17 -59 16 -101 18
-67 4 23 -9 3 -13 -120 -27 -38 -4 -77 -8 -85 -9 -8 -1 -17 -3 -20 -4 -3 -1
-20 -3 -38 -5 -19 -1 -57 -19 -86 -39 -47 -32 -116 -51 -102 -27 7 10 -33 3
-49 -9 -15 -11 -84 -4 -112 11 -20 11 -26 11 -33 -1 -8 -13 -10 -13 -10 -1 0
8 -3 12 -6 8 -4 -3 -23 2 -43 12 -44 23 -125 36 -115 19 5 -8 2 -9 -10 -5 -10
4 -22 7 -28 7 -6 0 -5 6 3 16 11 13 9 14 -13 9 -19 -5 -32 -1 -46 13 -11 11
-39 23 -63 27 -24 4 -51 13 -59 19 -8 7 -40 23 -70 36 -30 12 -64 29 -75 36
-11 8 -23 14 -27 14 -5 0 -8 -81 -8 -179 l0 -179 78 -65 c108 -91 275 -266
303 -319 6 -12 16 -26 21 -29 5 -3 10 -16 13 -28 2 -13 8 -28 13 -35 5 -6 12
-20 16 -30 5 -15 4 -17 -8 -7 -11 9 -15 9 -19 -1 -4 -11 -6 -10 -6 0 -1 7 -6
10 -11 7 -6 -4 -9 -3 -8 2 2 4 0 9 -4 11 -5 1 -24 11 -43 22 -40 23 -85 26
-103 8 -33 -33 2 -216 66 -348 15 -30 26 -63 24 -73 -1 -10 3 -15 8 -12 9 6
14 -8 11 -28 -1 -4 6 -10 14 -13 17 -7 21 -34 4 -34 -6 0 -9 -7 -6 -15 4 -8 2
-17 -4 -21 -6 -3 -7 -19 -4 -35 4 -16 3 -29 -2 -28 -21 4 -34 -2 -31 -13 3 -7
-6 -22 -19 -34 -13 -12 -23 -28 -23 -35 0 -8 -9 -20 -20 -27 -12 -7 -18 -17
-14 -23 3 -6 -3 -17 -15 -25 -12 -9 -19 -19 -16 -24 9 -15 -15 -22 -30 -10
-12 10 -15 8 -15 -11 0 -17 -3 -20 -9 -10 -6 9 -10 4 -13 -18 l-5 -31 609 0
c399 0 608 3 608 10 0 6 -6 10 -14 10 -8 0 -29 12 -46 26 -23 20 -28 29 -18
35 9 6 7 10 -7 15 -11 4 -29 17 -41 28 -11 12 -29 26 -39 32 -14 8 -19 21 -18
50 1 47 13 97 25 105 11 7 -35 105 -52 111 -6 2 -11 18 -13 36 -2 34 -8 35
-77 16 -12 -3 -16 5 -18 29 -1 17 -7 59 -12 91 -5 33 -6 64 -2 70 5 6 9 24 10
41 2 31 29 112 45 132 5 7 6 17 3 22 -7 11 62 129 131 225 146 204 414 432
639 545 249 124 509 188 799 198 329 10 590 -45 880 -187 117 -57 330 -191
390 -246 17 -15 53 -48 80 -73 77 -70 170 -177 239 -276 92 -131 190 -310 180
-326 -3 -5 0 -9 5 -9 6 0 11 -10 11 -22 0 -13 6 -35 13 -49 13 -24 27 -83 32
-141 2 -14 6 -32 10 -39 5 -7 4 -10 -2 -6 -13 8 -19 -6 -28 -66 -4 -25 -14
-54 -22 -64 -8 -10 -12 -13 -9 -6 4 6 2 14 -3 17 -13 9 -32 -19 -25 -37 3 -9
1 -24 -6 -34 -9 -16 -10 -15 -4 6 4 16 3 21 -5 17 -6 -4 -11 -2 -11 4 0 6 -4
9 -9 5 -6 -3 -15 5 -22 17 -16 31 -45 58 -62 58 -7 0 -32 9 -54 20 -82 39
-139 10 -177 -90 -23 -61 -60 -266 -50 -281 2 -4 -2 -10 -8 -12 -7 -3 440 -6
995 -6 l1007 -1 0 585 0 585 -24 -6 c-14 -3 -30 -3 -37 2 -18 11 -81 15 -93 5
-17 -13 -116 -23 -116 -12 0 5 8 12 18 14 9 3 1 5 -19 6 -20 0 -39 -2 -43 -7
-4 -4 -11 -7 -14 -7 -31 -2 -74 -22 -108 -51 -48 -39 -55 -35 -73 41 -7 27
-16 52 -19 55 -4 3 -18 27 -32 55 -30 60 -91 122 -145 146 -86 39 -189 12
-275 -72 -46 -45 -97 -62 -123 -41 -7 5 -29 12 -49 16 -21 4 -38 11 -38 16 0
6 -16 10 -36 10 -20 0 -49 9 -65 21 -19 14 -47 22 -78 23 -27 0 -47 4 -44 9 7
11 -8 8 -67 -13 -52 -19 -57 -19 -97 -4 -24 9 -43 22 -43 28 0 6 -6 3 -14 -6
-11 -15 -14 -11 -26 32 -8 28 -17 50 -21 50 -4 0 -11 10 -14 21 -6 17 -9 19
-16 8 -16 -25 -59 35 -59 82 0 22 -5 39 -11 39 -7 0 -9 9 -6 21 7 27 -20 108
-46 136 -23 25 -47 29 -80 12 -19 -11 -30 -13 -75 -18 -7 0 -11 -5 -8 -9 2 -4
-4 -13 -14 -20 -14 -9 -21 -9 -26 0 -4 6 -3 8 4 4 21 -13 22 13 1 48 -11 20
-17 36 -12 36 5 0 8 19 7 42 -2 32 7 61 36 118 137 272 365 498 650 644 187
95 357 145 565 166 209 21 190 15 193 63 6 79 7 85 16 84 5 -1 11 4 14 12 3 8
0 11 -7 7 -7 -5 -9 -1 -5 8 3 9 10 13 15 10 5 -3 7 1 4 8 -7 17 54 108 134
203 95 111 235 222 374 295 l48 25 -2 128 c0 72 -5 125 -10 121 -5 -3 -6 2 -3
10 8 22 -13 20 -25 -1 -6 -10 -11 -12 -11 -5 0 6 -6 12 -14 12 -7 0 -21 11
-30 25 -9 14 -21 23 -27 19 -5 -3 -15 -1 -22 4 -15 12 -237 13 -237 1 0 -5 -5
-9 -11 -9 -5 0 -8 4 -5 9 8 12 -12 18 -57 17 -24 -1 -36 2 -33 10 2 6 -5 19
-16 28 -19 17 -20 16 -13 -6 9 -27 26 -54 39 -59 6 -2 11 -14 12 -26 1 -12 9
-32 18 -45 45 -69 109 -292 79 -275 -4 2 -17 -4 -27 -14 -11 -11 -14 -19 -8
-19 6 0 9 -7 5 -16 -4 -11 -9 -12 -16 -5 -7 7 -7 18 3 35 41 77 -57 292 -129
284 -25 -3 -26 -5 -26 -73 0 -78 32 -163 79 -210 14 -14 20 -25 14 -25 -5 0
-7 -7 -4 -16 3 -8 2 -13 -3 -10 -12 8 -22 -20 -15 -39 4 -8 2 -15 -4 -15 -6 0
-17 -3 -26 -6 -11 -4 -16 -1 -16 11 0 10 -5 13 -12 9 -7 -4 -54 -9 -106 -11
-51 -2 -102 -8 -114 -14 -11 -6 -32 -8 -46 -5 -20 5 -23 4 -12 -4 13 -9 13
-10 0 -11 -66 -5 -100 -4 -100 3 0 11 -47 10 -54 -1 -3 -5 -34 -12 -67 -16
-34 -4 -56 -10 -50 -14 7 -5 2 -12 -14 -19 -32 -15 -45 -15 -25 -2 12 8 9 10
-11 7 -15 -1 -33 -8 -41 -15 -10 -8 -38 -10 -89 -6 -41 3 -101 7 -135 7 -33 1
-67 7 -75 13 -16 13 -153 26 -286 27 -50 1 -89 5 -87 9 3 4 -4 8 -15 8 -11 0
-23 5 -27 11 -4 7 -24 9 -50 6 -24 -2 -47 0 -53 6 -16 16 -14 -6 2 -23 6 -8 2
-6 -11 5 -13 10 -20 25 -17 33 3 8 -2 23 -12 34 -17 19 -17 19 -33 -2 -16 -21
-17 -21 -31 -3 -13 16 -12 17 2 5 14 -10 18 -10 23 3 3 9 -1 23 -8 31 -13 12
-16 12 -23 -1 -8 -13 -13 -12 -41 8 -17 13 -29 26 -27 29 3 3 -1 11 -10 18 -9
7 -19 10 -23 6 -4 -4 14 -26 41 -48 140 -118 298 -366 351 -552 24 -83 46
-212 46 -272 0 -55 -16 -114 -31 -114 -5 0 -9 -12 -10 -27 0 -16 -3 -23 -5
-16 -4 8 -15 6 -40 -9 -19 -11 -34 -23 -34 -27 0 -14 -104 -58 -177 -76 -40
-9 -73 -20 -73 -24 0 -3 -18 -7 -40 -8 -22 0 -58 -10 -80 -22 -22 -11 -46 -18
-53 -15 -8 3 -20 -2 -27 -11 -7 -8 -23 -15 -36 -15 -12 0 -25 -4 -28 -8 -2 -4
-28 -9 -57 -10 -29 -1 -58 -7 -63 -12 -6 -6 -29 -10 -52 -10 -24 0 -46 -4 -49
-10 -3 -5 -46 -10 -95 -10 -49 0 -100 -4 -114 -10 -18 -6 -38 -5 -71 6 -28 10
-65 14 -97 12 -45 -4 -176 8 -308 28 -25 4 -51 13 -58 21 -7 7 -28 13 -46 13
-19 0 -51 7 -72 15 -22 9 -48 20 -59 24 -28 11 -79 29 -150 53 -33 11 -78 28
-101 39 -23 10 -51 19 -62 19 -12 0 -41 11 -65 23 -24 13 -55 27 -68 31 -13 5
-28 10 -34 12 -5 2 -27 7 -47 12 -20 5 -48 21 -61 35 -18 20 -27 23 -35 15
-19 -19 -7 175 16 272 23 93 79 240 119 310 80 140 218 295 345 390 43 31 74
61 70 65 -4 5 -2 5 5 1 7 -4 44 9 82 29 194 97 331 128 571 129 150 0 187 -3
260 -22 131 -35 277 -97 369 -157 20 -13 42 -25 50 -27 8 -2 24 -14 36 -27 19
-21 22 -22 34 -7 12 14 11 16 -8 16 -11 0 -21 4 -21 10 0 5 6 7 14 4 18 -7 10
30 -9 46 -11 9 -12 6 -9 -12 4 -21 4 -21 -4 -3 -10 22 -5 48 8 40 4 -3 11 2
14 11 4 10 2 13 -6 8 -8 -5 -9 -2 -5 10 4 10 7 20 7 22 0 3 4 2 10 -1 5 -3 7
0 4 8 -6 17 39 114 86 183 51 74 174 189 272 254 100 67 200 111 322 141 47
12 86 26 86 31 0 5 -6 6 -12 2 -7 -5 -2 5 10 21 16 20 21 36 17 56 -6 28 43
145 77 183 10 10 15 23 12 28 -3 4 0 8 5 8 6 0 11 5 11 10 0 22 -21 8 -34 -22
-8 -18 -15 -26 -15 -18 -1 8 -9 20 -20 27 -10 6 -21 26 -24 43 -4 17 -20 45
-37 61 -57 57 -125 22 -137 -69 -4 -30 -10 -42 -22 -42 -9 -1 -41 -10 -71 -21
-81 -29 -128 -34 -245 -28 l-60 3 1 58 c0 32 -1 56 -3 54 -2 -2 -15 7 -28 20
-13 13 -35 24 -48 24 -48 0 -107 -69 -107 -124 0 -31 -10 -37 -49 -30 -23 5
-38 17 -54 45 -12 21 -27 39 -34 39 -11 0 -42 23 -89 67 -54 50 -4 177 121
305 57 58 91 84 146 109 67 31 70 34 65 61 -4 20 -2 27 6 22 7 -4 8 -3 4 5 -4
6 -11 9 -15 6 -5 -2 -17 2 -27 10 -31 23 -70 18 -93 -11z m-6 -103 c6 -10 -32
-41 -50 -41 -5 0 3 9 18 19 20 13 25 20 15 24 -8 4 -9 6 -1 6 6 1 14 -3 18 -8z
m757 -753 c-8 -8 -9 -4 -5 13 4 13 8 18 11 10 2 -7 -1 -18 -6 -23z m-2385
-790 c-3 -8 -6 -5 -6 6 -1 11 2 17 5 13 3 -3 4 -12 1 -19z m-232 -8 c10 -11
16 -20 13 -20 -3 0 -13 9 -23 20 -10 11 -16 20 -13 20 3 0 13 -9 23 -20z
m-642 -85 c-3 -9 -8 -14 -10 -11 -3 3 -2 9 2 15 9 16 15 13 8 -4z"/>
<path d="M2314 5164 c-18 -14 -18 -15 6 -8 14 3 32 10 40 15 12 7 11 8 -6 9
-11 0 -29 -7 -40 -16z"/>
<path d="M543 5155 c4 -5 -1 -14 -12 -19 -19 -11 -19 -12 -1 -34 l19 -23 43
28 43 28 -35 3 c-19 2 -42 9 -50 15 -8 6 -11 7 -7 2z"/>
<path d="M5730 5111 c-19 -16 -33 -31 -30 -34 7 -7 120 44 120 54 0 20 -58 7
-90 -20z"/>
<path d="M0 4829 l0 -124 113 -4 c236 -7 212 -10 215 23 2 17 0 26 -7 22 -7
-5 -7 2 -1 21 4 15 11 41 15 56 6 28 6 29 -42 26 -26 -1 -57 -7 -68 -12 -10
-6 -37 -12 -59 -13 -22 -2 -43 -9 -47 -15 -10 -16 -20 5 -12 26 4 13 2 16 -8
13 -9 -3 -18 6 -24 25 -5 16 -25 41 -42 55 l-33 25 0 -124z"/>
<path d="M3296 4873 c-6 -14 -5 -15 5 -6 7 7 10 15 7 18 -3 3 -9 -2 -12 -12z"/>
<path d="M2372 4783 c-63 -31 -82 -118 -38 -170 19 -22 32 -28 66 -28 88 0
134 109 73 174 -36 38 -61 44 -101 24z"/>
<path d="M5787 4718 c-15 -12 -11 -19 37 -67 62 -61 86 -63 86 -6 0 65 -74
109 -123 73z"/>
<path d="M4580 4591 c0 -5 7 -11 14 -14 10 -4 13 -1 9 9 -6 15 -23 19 -23 5z"/>
<path d="M4774 4566 c-41 -18 -102 -91 -110 -132 -10 -52 -2 -69 32 -72 74 -7
171 144 126 197 -15 18 -20 19 -48 7z"/>
<path d="M5304 4471 c-51 -23 -79 -76 -69 -130 3 -20 7 -42 7 -48 1 -7 3 -11
6 -9 2 2 12 -4 23 -15 10 -10 28 -19 38 -19 11 0 21 -5 23 -11 2 -6 34 24 72
66 l69 77 -16 33 c-30 63 -90 85 -153 56z"/>
<path d="M2 4218 l3 -123 37 1 c45 1 82 24 109 67 47 75 -15 177 -106 177
l-46 0 3 -122z"/>
<path d="M4780 4288 l-45 -11 35 -8 c19 -4 73 -15 120 -24 106 -21 216 -63
304 -116 54 -32 70 -38 82 -29 7 7 12 16 9 20 -3 4 7 29 20 55 14 25 23 51 20
56 -11 17 -36 9 -45 -16 -11 -30 -20 -33 -15 -5 2 11 0 22 -6 25 -5 4 -9 -4
-9 -16 0 -18 -2 -19 -15 -9 -12 10 -18 10 -32 -1 -14 -12 -16 -12 -8 0 6 11 4
13 -9 8 -9 -4 -15 -3 -12 2 3 5 -1 12 -10 15 -8 3 -13 2 -9 -3 3 -5 -12 -1
-32 9 -107 51 -251 71 -343 48z"/>
<path d="M4545 4280 c3 -5 8 -10 11 -10 2 0 4 5 4 10 0 6 -5 10 -11 10 -5 0
-7 -4 -4 -10z"/>
<path d="M3443 4245 c-30 -21 -47 -85 -34 -130 23 -84 94 -136 157 -115 67 22
82 106 31 180 -44 66 -113 95 -154 65z"/>
<path d="M5345 4085 c-14 -13 -25 -28 -25 -32 0 -14 89 -97 96 -90 12 12 16
92 5 120 -13 34 -43 35 -76 2z"/>
<path d="M5949 4077 c-19 -12 -45 -44 -58 -71 -22 -45 -23 -53 -12 -94 6 -25
20 -51 29 -59 32 -25 73 -44 82 -38 12 8 13 285 1 285 -4 0 -23 -10 -42 -23z"/>
<path d="M3610 3910 c-8 -5 -11 -12 -8 -16 4 -3 14 1 23 10 18 17 9 21 -15 6z"/>
<path d="M4744 3646 c-17 -8 -44 -31 -60 -52 -25 -32 -29 -46 -28 -98 1 -87 7
-114 22 -109 11 5 16 -8 13 -29 0 -4 5 -5 13 -2 7 3 21 -2 30 -12 13 -13 30
-15 77 -12 51 4 64 9 94 38 20 19 40 51 45 71 21 77 -21 167 -94 200 -49 22
-70 23 -112 5z"/>
<path d="M3358 3394 c-64 -34 -59 -140 9 -215 111 -122 283 -108 283 24 0 48
-18 82 -67 128 -75 72 -163 97 -225 63z"/>
<path d="M4740 3290 c-9 -6 -10 -10 -3 -10 6 0 15 5 18 10 8 12 4 12 -15 0z"/>
<path d="M2364 3261 c-57 -41 -90 -83 -109 -141 -33 -99 7 -170 94 -170 119 1
227 139 200 258 -18 83 -109 109 -185 53z"/>
<path d="M255 3066 c-23 -25 -37 -52 -42 -79 -7 -41 -7 -41 -13 -12 l-6 30 -6
-28 c-3 -19 -1 -30 7 -34 13 -4 246 50 266 62 5 4 9 11 9 16 0 6 -5 7 -12 3
-7 -5 -9 -2 -6 7 7 17 -13 37 -30 31 -7 -2 -22 4 -32 13 -10 9 -37 19 -59 22
-38 5 -44 2 -76 -31z"/>
<path d="M3552 2988 c-17 -13 -57 -45 -89 -71 -58 -48 -179 -112 -264 -141
-113 -37 -208 -49 -358 -43 -168 6 -248 24 -379 89 -93 46 -123 45 -147 -2
-36 -69 -9 -111 108 -165 147 -67 279 -95 457 -95 286 0 561 101 733 268 69
68 76 105 28 153 -35 35 -49 36 -89 7z"/>
<path d="M106 2938 c3 -4 1 -8 -4 -8 -5 0 -9 -6 -9 -14 0 -8 6 -12 14 -9 7 3
10 10 7 15 -4 6 1 8 13 4 13 -4 25 0 34 11 11 15 11 16 -1 6 -15 -14 -34 -18
-26 -5 2 4 -4 8 -14 8 -10 0 -16 -4 -14 -8z"/>
<path d="M0 2878 c0 -11 22 -10 39 1 10 7 7 9 -12 8 -15 -1 -27 -5 -27 -9z"/>
<path d="M5410 2869 c0 -5 5 -7 10 -4 6 3 10 8 10 11 0 2 -4 4 -10 4 -5 0 -10
-5 -10 -11z"/>
<path d="M553 2094 c-52 -19 -121 -84 -148 -139 -15 -30 -20 -60 -20 -120 0
-72 3 -84 30 -125 41 -62 117 -100 197 -100 184 0 296 203 207 375 -51 100
-165 146 -266 109z"/>
<path d="M5778 1173 c6 -2 18 -2 25 0 6 3 1 5 -13 5 -14 0 -19 -2 -12 -5z"/>
<path d="M1090 870 c0 -5 5 -10 11 -10 5 0 7 5 4 10 -3 6 -8 10 -11 10 -2 0
-4 -4 -4 -10z"/>
<path d="M1470 10 c0 -5 5 -10 11 -10 5 0 7 5 4 10 -3 6 -8 10 -11 10 -2 0 -4
-4 -4 -10z"/>
<path d="M2598 3 c7 -3 16 -2 19 1 4 3 -2 6 -13 5 -11 0 -14 -3 -6 -6z"/>
</g>
</svg>
